<?xml version="1.0" encoding="UTF-8"?>
<svg width="752pt" height="752pt" version="1.1" viewBox="0 0 752 752" xmlns="http://www.w3.org/2000/svg">
 <g>
  <path d="m547.7 250.02c-13.059 0-23.68 10.621-23.68 23.68l0.054688 40.781h-42.125c-18.906-30.613-50.547-51.816-85.789-57.559l-4.0273-36.828c8.2109-5.3711 13.18-14.41 13.18-24.379 0-16.16-13.148-29.309-29.309-29.309s-29.309 13.148-29.309 29.309c0 9.9688 4.9648 19.012 13.18 24.379l-4.0273 36.828c-35.27 5.7578-66.891 26.957-85.789 57.559l-42.07 0.046876v-40.832c0-13.059-10.621-23.68-23.68-23.68s-23.68 10.621-23.68 23.68v40.832c0 26.082 21.219 47.309 47.305 47.309h25.016c-0.86328 5.9727-1.4453 11.973-1.4453 17.941v165.39h58.988v40.438h60.633v-40.438h9.7617v40.438h60.633v-40.438h58.988l-0.007812-165.38c0-5.9688-0.58203-11.969-1.4453-17.941h25.02c26.082 0 47.305-21.223 47.305-47.309v-40.832c0-13.059-10.621-23.68-23.68-23.68zm-190.48-54.305c0-10.355 8.4258-18.785 18.785-18.785 10.355 0 18.785 8.4258 18.785 18.785 0 7.1836-4.0469 13.621-10.566 16.793l-3.3281 1.6211 4.5391 41.488c-6.207-0.46484-12.676-0.46484-18.855 0l4.5391-41.488-3.3281-1.6211c-6.5234-3.1719-10.57-9.6094-10.57-16.793zm-129.29 155.6c-20.281 0-36.781-16.5-36.781-36.781v-40.832c0-7.2539 5.9023-13.156 13.156-13.156 7.2539 0 13.156 5.9023 13.156 13.156v40.832c0 5.7773 4.6953 10.473 10.469 10.473h36.305c-4.1445 8.4219-7.2383 17.234-9.3516 26.309zm132.67 223.77h-39.582v-29.914h39.582zm70.398 0h-39.582v-29.914h39.582zm58.984-40.441h-227.95v-154.86c0-7.3828 0.73047-14.852 2.1641-22.195 2.4062-12.336 6.8867-24.176 13.324-35.191 17.754-30.43 49.078-51.25 83.832-55.691 9.2344-1.2578 20.027-1.2656 29.348 0.003906 34.711 4.4375 66.035 25.254 83.793 55.688 6.4336 11.012 10.914 22.852 13.32 35.191 1.4375 7.3438 2.1641 14.809 2.1641 22.195zm70.879-220.11c0 20.281-16.5 36.781-36.781 36.781h-26.953c-2.1133-9.0781-5.207-17.891-9.3516-26.309h36.305c5.7734 0 10.469-4.6953 10.469-10.473v-40.832c0-7.2539 5.9023-13.156 13.156-13.156 7.2539 0 13.156 5.9023 13.156 13.156z"/>
  <path d="m429.82 432.31 12.02-4.9688-4.0195-9.7266-127.66 52.777 4.0195 9.7266 63.734-26.348 13.109 31.59c4.4805 10.793 14.957 17.32 25.98 17.32 3.5781 0 7.2188-0.6875 10.723-2.1445 14.305-5.9375 21.109-22.406 15.176-36.707zm-29.078 49.016-13.105-31.578 11.363-4.6992 19.488 46.957c-7.418 0.64453-14.742-3.4414-17.746-10.68zm27.469 6.6445-19.48-46.941 11.363-4.6953 13.086 31.535c3.0039 7.2344 0.72656 15.301-4.9688 20.102z"/>
  <path d="m331.18 411.22c13.941 0 25.285-11.344 25.285-25.285v-53.824c0-13.941-11.344-25.285-25.285-25.285-13.941 0-25.285 11.344-25.285 25.285v53.824c0 13.941 11.344 25.285 25.285 25.285zm-14.762-79.109c0-8.1406 6.6211-14.762 14.762-14.762 8.1406 0 14.762 6.6211 14.762 14.762v53.824c0 8.1406-6.6211 14.762-14.762 14.762-8.1406 0-14.762-6.6211-14.762-14.762z"/>
  <path d="m325.65 353.77h11.055v10.523h-11.055z"/>
  <path d="m420.82 306.83c-13.941 0-25.285 11.344-25.285 25.285v53.824c0 13.941 11.344 25.285 25.285 25.285 13.941 0 25.285-11.344 25.285-25.285v-53.824c0-13.941-11.344-25.285-25.285-25.285zm14.762 79.109c0 8.1406-6.6211 14.762-14.762 14.762s-14.762-6.6211-14.762-14.762v-53.824c0-8.1406 6.6211-14.762 14.762-14.762s14.762 6.6211 14.762 14.762z"/>
  <path d="m415.3 353.77h11.055v10.523h-11.055z"/>
 </g>
</svg>
