<?xml version="1.0" encoding="UTF-8"?>
<svg width="752pt" height="752pt" version="1.1" viewBox="0 0 752 752" xmlns="http://www.w3.org/2000/svg">
 <path d="m440.54 353.73c-0.90234-2.9375-1.3906-6.0625-1.3906-9.2969 0-17.438 14.137-31.574 31.574-31.574s31.57 14.137 31.57 31.574-14.133 31.57-31.57 31.57c-3.2383 0-6.3594-0.48438-9.2969-1.3906 5.4805-2.4727 9.2969-7.9883 9.2969-14.395 0-8.7188-7.0703-15.785-15.789-15.785-6.4023 0-11.918 3.8164-14.395 9.2969zm-149.95 20.883c-2.9375 0.90625-6.0625 1.3906-9.2969 1.3906-17.438 0-31.57-14.133-31.57-31.57s14.133-31.574 31.57-31.574 31.57 14.137 31.57 31.574c0 3.2344-0.48438 6.3594-1.3906 9.2969-2.4727-5.4805-7.9883-9.2969-14.395-9.2969-8.7188 0-15.785 7.0664-15.785 15.785 0 6.4062 3.8164 11.922 9.2969 14.395zm85.418 222.39c122.06 0 221-98.945 221-221 0-122.05-98.945-221-221-221-122.05 0-221 98.949-221 221 0 122.06 98.949 221 221 221zm0-15.785c113.34 0 205.22-91.879 205.22-205.22 0-113.34-91.879-205.22-205.22-205.22-113.34 0-205.22 91.883-205.22 205.22 0 113.34 91.883 205.22 205.22 205.22zm-132.27-117.13c7.1953 9.6602 15.852 19.309 26.004 28.32 29.145 25.867 64.582 41.457 106.27 41.457 41.691 0 77.125-15.59 106.27-41.457 10.156-9.0117 18.812-18.66 26.004-28.32 4.3555-5.8516 7.2852-10.465 8.8164-13.227 2.1094-3.8125 0.73047-8.6172-3.0859-10.727-3.8125-2.1094-8.6172-0.73047-10.727 3.0859-1.2031 2.168-3.7578 6.1875-7.6641 11.438-6.5781 8.8398-14.523 17.691-23.82 25.945-26.438 23.465-58.289 37.473-95.793 37.473-37.5 0-69.352-14.008-95.789-37.473-9.2969-8.2539-17.242-17.105-23.82-25.945-3.9102-5.25-6.4648-9.2695-7.6641-11.438-2.1094-3.8164-6.9141-5.1953-10.727-3.0859-3.8164 2.1094-5.1953 6.9141-3.0859 10.727 1.5273 2.7617 4.457 7.375 8.8125 13.227zm37.559-72.297c26.156 0 47.359-21.203 47.359-47.359s-21.203-47.359-47.359-47.359-47.359 21.203-47.359 47.359 21.203 47.359 47.359 47.359zm189.43 0c26.152 0 47.355-21.203 47.355-47.359s-21.203-47.359-47.355-47.359c-26.156 0-47.359 21.203-47.359 47.359s21.203 47.359 47.359 47.359z" fill-rule="evenodd"/>
</svg>
