<?xml version="1.0" encoding="UTF-8"?>
<svg width="752pt" height="752pt" version="1.1" viewBox="0 0 752 752" xmlns="http://www.w3.org/2000/svg">
 <g>
  <path d="m176.21 597.99h399.58c1.9648 0 3.8438-0.78125 5.2344-2.168 1.3867-1.3867 2.1641-3.2695 2.1641-5.2305v-251.59c0-0.089844-0.042968-0.16406-0.050781-0.25v-0.003906c-0.007813-0.79688-0.14844-1.5898-0.41406-2.3438l-44.398-118.39c-1.082-2.8906-3.8477-4.8047-6.9336-4.8047h-73.996v-51.797c0-1.9609-0.78125-3.8438-2.168-5.2344-1.3867-1.3867-3.2695-2.1641-5.2305-2.1641h-148c-4.0859 0-7.3984 3.3125-7.3984 7.3984v51.797h-73.996c-3.0898 0-5.8516 1.9141-6.9336 4.8047l-44.398 118.39c-0.26172 0.75-0.40234 1.543-0.41406 2.3359 0 0.089843-0.050781 0.17187-0.050781 0.25781l-0.003906 251.59c0 4.0859 3.3125 7.3984 7.4023 7.3984zm44.398-14.801v-133.19h73.996v133.19zm88.797 0-0.003906-140.59c0-1.9609-0.77734-3.8438-2.1641-5.2305-1.3906-1.3867-3.2695-2.168-5.2344-2.168h-88.797c-4.0859 0-7.3984 3.3125-7.3984 7.3984v140.59h-22.199v-181.71c5.8906 3.5273 12.844 4.8477 19.621 3.7266 6.7734-1.1172 12.93-4.6055 17.379-9.8359 5.5469 6.4883 13.66 10.227 22.199 10.227 8.5352 0 16.648-3.7383 22.199-10.227 5.5469 6.4883 13.66 10.227 22.195 10.227 8.5391 0 16.652-3.7383 22.199-10.227 5.5508 6.4883 13.66 10.227 22.199 10.227 8.5391 0 16.652-3.7383 22.199-10.227 5.5508 6.4883 13.66 10.227 22.199 10.227s16.652-3.7383 22.199-10.227c5.5508 6.4883 13.66 10.227 22.199 10.227 8.5391 0 16.652-3.7383 22.199-10.227 5.5508 6.4883 13.66 10.227 22.199 10.227s16.652-3.7383 22.199-10.227c5.5508 6.4883 13.66 10.227 22.199 10.227 8.5391 0 16.652-3.7383 22.199-10.227 4.4453 5.2305 10.605 8.7188 17.379 9.8359 6.7734 1.1211 13.727-0.19922 19.621-3.7266v181.71zm-125.8-236.79h29.598v29.598c0 5.2891-2.8203 10.176-7.3984 12.816-4.5781 2.6445-10.223 2.6445-14.801 0-4.5781-2.6406-7.3984-7.5273-7.3984-12.816zm73.996 0v29.598c0 5.2891-2.8203 10.176-7.3984 12.816-4.5781 2.6445-10.223 2.6445-14.801 0-4.5781-2.6406-7.3984-7.5273-7.3984-12.816v-29.598zm44.398 0v29.598c0 5.2891-2.8203 10.176-7.3984 12.816-4.5781 2.6445-10.223 2.6445-14.801 0-4.5781-2.6406-7.3984-7.5273-7.3984-12.816v-29.598zm44.398 0v29.598c0 5.2891-2.8203 10.176-7.3984 12.816-4.5781 2.6445-10.223 2.6445-14.801 0-4.5781-2.6406-7.3984-7.5273-7.3984-12.816v-29.598zm44.398 0v29.598c0 5.2891-2.8203 10.176-7.3984 12.816-4.582 2.6445-10.223 2.6445-14.801 0-4.5781-2.6406-7.3984-7.5273-7.3984-12.816v-29.598zm44.398 0v29.598c0 5.2891-2.8203 10.176-7.3984 12.816-4.582 2.6445-10.223 2.6445-14.801 0-4.5781-2.6406-7.3984-7.5273-7.3984-12.816v-29.598zm44.398 0v29.598c0 5.2891-2.8203 10.176-7.3984 12.816-4.582 2.6445-10.223 2.6445-14.801 0-4.5781-2.6406-7.3984-7.5273-7.3984-12.816v-29.598zm44.398 0v29.598c0 5.2891-2.8203 10.176-7.3984 12.816-4.582 2.6445-10.223 2.6445-14.801 0-4.5781-2.6406-7.3984-7.5273-7.3984-12.816v-29.598zm44.398 0v29.598c0 5.2891-2.8203 10.176-7.4023 12.816-4.5781 2.6445-10.219 2.6445-14.797 0-4.5781-2.6406-7.4023-7.5273-7.4023-12.816v-29.598zm-258.99-177.59h133.2v133.2h-133.2zm-83.668 59.199h68.871v81.395c0 1.9648 0.77734 3.8477 2.168 5.2344 1.3867 1.3867 3.2695 2.168 5.2305 2.168h148c1.9609 0 3.8438-0.78125 5.2305-2.168s2.168-3.2695 2.168-5.2344v-81.395h68.867l38.848 103.6-378.23-0.003907z"/>
  <path d="m242.81 524c0 4.0859-3.3164 7.3984-7.4023 7.3984s-7.3984-3.3125-7.3984-7.3984c0-4.0859 3.3125-7.3984 7.3984-7.3984s7.4023 3.3125 7.4023 7.3984"/>
  <path d="m538.79 435.2h-192.39c-4.0859 0-7.3984 3.3125-7.3984 7.3984v103.6c0 1.9609 0.77734 3.8438 2.168 5.2305 1.3867 1.3906 3.2695 2.168 5.2305 2.168h192.39c1.9648 0 3.8477-0.77734 5.2344-2.168 1.3867-1.3867 2.168-3.2695 2.168-5.2305v-103.6c0-1.9609-0.78125-3.8438-2.168-5.2305-1.3867-1.3867-3.2695-2.168-5.2344-2.168zm-7.3984 103.59h-177.59v-88.793h177.59z"/>
  <path d="m346.4 272.41h29.598c4.5781-0.019531 9.0352-1.4531 12.766-4.1016 3.7266-2.6484 6.5469-6.3867 8.0742-10.699h8.7617c7.9297 0 15.258-4.2305 19.223-11.098 3.9648-6.8711 3.9648-15.332 0-22.199-3.9648-6.8711-11.293-11.102-19.223-11.102h-7.4023v-7.3984c0-1.9609-0.77734-3.8438-2.168-5.2344-1.3867-1.3867-3.2695-2.1641-5.2305-2.1641h-59.199c-4.0859 0-7.3984 3.3125-7.3984 7.3984v44.398c0 5.8867 2.3398 11.535 6.5039 15.695 4.1602 4.1641 9.8086 6.5039 15.695 6.5039zm59.199-44.398c4.0859 0 7.3984 3.3125 7.3984 7.3984s-3.3125 7.4023-7.3984 7.4023h-7.4023v-14.801zm-66.598-14.801h44.398v37c0 1.9609-0.78125 3.8438-2.168 5.2305-1.3867 1.3906-3.2695 2.168-5.2344 2.168h-29.598c-4.0859 0-7.3984-3.3125-7.3984-7.3984z"/>
 </g>
</svg>
